<svg width="27" height="24" viewBox="0 0 27 24" fill="none" xmlns="http://www.w3.org/2000/svg">
<path d="M0.75 0.75H4.75L7.75 17.75H23.75M7.75 12.4167H23.34C23.4556 12.4167 23.5677 12.3767 23.6572 12.3035C23.7466 12.2302 23.8079 12.1282 23.8306 12.0148L25.6306 3.01479C25.6451 2.94222 25.6434 2.86733 25.6255 2.79552C25.6075 2.72372 25.5739 2.65679 25.5269 2.59956C25.48 2.54234 25.4209 2.49625 25.354 2.46462C25.2871 2.43299 25.214 2.41662 25.14 2.41667H5.75M9.75 21.75C9.75 22.3023 9.30228 22.75 8.75 22.75C8.19772 22.75 7.75 22.3023 7.75 21.75C7.75 21.1977 8.19772 20.75 8.75 20.75C9.30228 20.75 9.75 21.1977 9.75 21.75ZM23.75 21.75C23.75 22.3023 23.3023 22.75 22.75 22.75C22.1977 22.75 21.75 22.3023 21.75 21.75C21.75 21.1977 22.1977 20.75 22.75 20.75C23.3023 20.75 23.75 21.1977 23.75 21.75Z" stroke="black" stroke-width="1.5" stroke-linecap="round" stroke-linejoin="round"/>
</svg>
